<svg width="430" height="729" viewBox="0 0 430 729" fill="none" xmlns="http://www.w3.org/2000/svg">
<path opacity="0.2" d="M-589.193 0L907.615 728.783" stroke="white" stroke-opacity="0.4"/>
<path opacity="0.2" d="M-677.241 42.8691L819.567 771.652" stroke="white" stroke-opacity="0.4"/>
<path opacity="0.2" d="M-765.289 85.7383L731.519 814.521" stroke="white" stroke-opacity="0.4"/>
<path opacity="0.2" d="M-853.336 128.609L643.472 857.392" stroke="white" stroke-opacity="0.4"/>
<path opacity="0.2" d="M-941.383 171.479L555.424 900.261" stroke="white" stroke-opacity="0.4"/>
<path opacity="0.2" d="M-1029.43 214.348L467.377 943.13" stroke="white" stroke-opacity="0.4"/>
<path opacity="0.2" d="M-1117.48 257.217L379.33 986" stroke="white" stroke-opacity="0.4"/>
<path opacity="0.2" d="M-1205.53 300.088L291.281 1028.87" stroke="white" stroke-opacity="0.4"/>
<path opacity="0.2" d="M-1293.57 342.957L203.234 1071.74" stroke="white" stroke-opacity="0.4"/>
<path opacity="0.2" d="M-1381.62 385.826L115.187 1114.61" stroke="white" stroke-opacity="0.4"/>
<path opacity="0.2" d="M-1469.67 428.695L27.1392 1157.48" stroke="white" stroke-opacity="0.4"/>
<path opacity="0.2" d="M27.1392 300.088L-1469.67 1028.87" stroke="white" stroke-opacity="0.4"/>
<path opacity="0.2" d="M115.187 342.957L-1381.62 1071.74" stroke="white" stroke-opacity="0.4"/>
<path opacity="0.2" d="M203.217 385.826L-1293.59 1114.61" stroke="white" stroke-opacity="0.4"/>
<path opacity="0.2" d="M291.265 428.695L-1205.54 1157.48" stroke="white" stroke-opacity="0.4"/>
<path opacity="0.2" d="M379.312 471.564L-1117.5 1200.35" stroke="white" stroke-opacity="0.4"/>
<path opacity="0.2" d="M467.359 514.436L-1029.45 1243.22" stroke="white" stroke-opacity="0.4"/>
<path opacity="0.2" d="M555.407 557.305L-941.401 1286.09" stroke="white" stroke-opacity="0.4"/>
<path opacity="0.2" d="M643.454 600.174L-853.353 1328.96" stroke="white" stroke-opacity="0.4"/>
<path opacity="0.2" d="M731.502 643.043L-765.306 1371.83" stroke="white" stroke-opacity="0.4"/>
</svg>
