<svg width="20" height="20" viewBox="0 0 20 20" fill="none" xmlns="http://www.w3.org/2000/svg">
<path fill-rule="evenodd" clip-rule="evenodd" d="M10.2079 1.66602C13.9987 1.66602 17.0829 4.77352 17.0829 8.59352C17.0829 13.2893 11.7029 17.916 10.2079 17.916C8.71292 17.916 3.33292 13.2893 3.33292 8.59352C3.33292 4.77352 6.41708 1.66602 10.2079 1.66602ZM10.2079 2.91602C7.10625 2.91602 4.58292 5.46352 4.58292 8.59352C4.58292 12.576 9.26958 16.456 10.2079 16.6627C11.1462 16.4552 15.8329 12.5752 15.8329 8.59352C15.8329 5.46352 13.3096 2.91602 10.2079 2.91602ZM10.2087 5.83268C11.7021 5.83268 12.9171 7.04768 12.9171 8.54185C12.9171 10.0352 11.7021 11.2493 10.2087 11.2493C8.71542 11.2493 7.50042 10.0352 7.50042 8.54185C7.50042 7.04768 8.71542 5.83268 10.2087 5.83268ZM10.2087 7.08268C9.40458 7.08268 8.75042 7.73685 8.75042 8.54185C8.75042 9.34602 9.40458 9.99935 10.2087 9.99935C11.0129 9.99935 11.6671 9.34602 11.6671 8.54185C11.6671 7.73685 11.0129 7.08268 10.2087 7.08268Z" fill="#B0B0B2"/>
</svg>
